<svg id="图层_1" data-name="图层 1" xmlns="http://www.w3.org/2000/svg" viewBox="0 0 72 72"><defs><style>.cls-1{fill:none;stroke:#303f9f;stroke-miterlimit:10;stroke-width:4px;}</style></defs><title>members</title><path class="cls-1" d="M42.75,56.21C41.1,50.35,36.57,35.6,31.13,29.62a8.5,8.5,0,1,0-9.27,0c-5.44,6-10,20.73-11.62,26.59C9.42,59.15,11,59,12.37,59H40.63C42,59,43.58,59.15,42.75,56.21Z"/><path class="cls-1" d="M61.75,56.21C60.1,50.35,55.57,35.6,50.13,29.62a8.5,8.5,0,1,0-9.27,0c-5.44,6-10,20.73-11.62,26.59C28.42,59.15,30,59,31.37,59H59.63C61,59,62.58,59.15,61.75,56.21Z"/></svg>